<svg version="1.1" id="close" xmlns="http://www.w3.org/2000/svg" x="0" y="0" viewBox="0 0 32 32" xml:space="preserve"><path class="st0" d="M23.9 6.7 16 14.6 8.1 6.7c-.2-.2-.4-.3-.7-.3-.3 0-.5.1-.7.3-.1.2-.2.5-.3.7 0 .3.1.5.3.7l7.9 7.9-7.9 7.9c-.1.1-.2.2-.2.3-.1.1-.1.3-.1.4s0 .3.1.4c.1.1.1.2.2.3.1.1.2.2.3.2.1.1.3.1.4.1.1 0 .3 0 .4-.1.1-.1.2-.1.3-.2l7.9-7.9 7.9 7.9c.2.2.4.3.7.3.3 0 .5-.1.7-.3.2-.2.3-.4.3-.7 0-.3-.1-.5-.3-.7L17.4 16l7.9-7.9c.1-.1.2-.2.2-.3.1-.1.1-.3.1-.4 0-.1 0-.3-.1-.4-.1-.1-.1-.2-.2-.3-.1-.1-.2-.2-.3-.2-.1-.1-.3-.1-.4-.1-.1 0-.3 0-.4.1-.1 0-.2.1-.3.2z"/></svg>